<?xml version="1.0" encoding="utf-8"?>
<!-- Generator: Adobe Illustrator 16.0.0, SVG Export Plug-In . SVG Version: 6.00 Build 0)  -->
<!DOCTYPE svg PUBLIC "-//W3C//DTD SVG 1.1//EN" "http://www.w3.org/Graphics/SVG/1.1/DTD/svg11.dtd">
<svg version="1.1" id="圖層_1" xmlns="http://www.w3.org/2000/svg" xmlns:xlink="http://www.w3.org/1999/xlink" x="0px" y="0px"
	 width="430.545px" height="190px" viewBox="96.14 184.445 430.545 190" enable-background="new 96.14 184.445 430.545 190"
	 xml:space="preserve">
<g>
	<g>
		<path fill="#E73C79" d="M103.842,194.068h8.663v121.813h-8.663V194.068z"/>
	</g>
	<g>
		<path fill="#E73C79" d="M180.574,361.348c-5.171,2.577-15.091,5.154-27.666,5.154c-25.85,0-49.323-17.036-49.323-55.259
			c0-33.642,20.26-56.691,52.815-56.691c14.112,0,21.238,3.293,23.753,4.581l-2.515,7.587c-5.169-2.577-12.436-4.724-21.238-4.724
			c-26.688,0-43.874,18.181-43.874,49.247c0,29.49,15.929,47.814,42.896,47.814c8.663,0,17.046-2.004,22.915-4.867L180.574,361.348z
			"/>
	</g>
	<g>
		<path opacity="0.6" fill="#E62F76" enable-background="new    " d="M228.938,195.195v76.188h-3.78v-8.443
			c-3.911,6.391-8.938,9.585-15.076,9.585c-6.205,0-11.167-2.714-14.884-8.146c-3.328-4.833-4.992-11.009-4.992-18.525
			c0-8.642,2.084-15.413,6.254-20.313c3.49-4.172,7.9-6.258,13.233-6.258c6.172,0,11.295,3.162,15.367,9.486v-33.575
			L228.938,195.195L228.938,195.195z M225.059,233.835c-4.007-7.251-9.13-10.877-15.367-10.877c-4.977,0-8.871,2.268-11.683,6.804
			c-2.554,4.073-3.83,9.437-3.83,16.092c0,7.649,1.729,13.576,5.188,17.781c2.908,3.543,6.544,5.314,10.907,5.314
			c5.655,0,10.583-3.493,14.785-10.479V233.835z"/>
		<path opacity="0.6" fill="#E62F76" enable-background="new    " d="M283.716,245.457h-36.019c0,8.046,1.858,14.205,5.575,18.476
			c2.974,3.411,6.673,5.116,11.102,5.116c4.232,0,7.594-1.043,10.083-3.129c2.165-1.821,3.894-4.569,5.187-8.245l3.685,1.837
			c-3.685,8.675-10.035,13.013-19.052,13.013c-6.398,0-11.506-2.698-15.318-8.096c-3.426-4.8-5.14-10.959-5.14-18.476
			c0-8.609,2.165-15.397,6.496-20.363c3.652-4.205,8.208-6.308,13.67-6.308c6.173,0,11.117,2.6,14.834,7.797
			c3.265,4.569,4.896,10.348,4.896,17.333L283.716,245.457L283.716,245.457z M279.741,241.98
			c-0.551-6.556-2.425-11.539-5.623-14.949c-2.716-2.848-6.093-4.271-10.133-4.271c-4.622,0-8.435,1.921-11.439,5.761
			c-2.684,3.444-4.234,7.93-4.654,13.459H279.741z"/>
		<path opacity="0.6" fill="#E62F76" enable-background="new    " d="M297.047,231.898c3.264-8.41,9.484-12.615,18.664-12.615
			c5.882,0,10.147,1.523,12.799,4.569c2.391,2.781,3.586,6.92,3.586,12.417v16.688c0,8.112,0.438,14.254,1.31,18.426h-3.685
			c-0.55-2.317-0.986-5.645-1.31-9.983c-4.848,7.417-10.973,11.125-18.373,11.125c-5.171,0-9.13-1.556-11.876-4.668
			c-2.263-2.549-3.394-5.811-3.394-9.785c0-9.204,5.495-14.733,16.483-16.588c4.231-0.728,9.889-1.274,16.967-1.639v-2.831
			c0-5.595-1.101-9.453-3.297-11.572c-1.939-1.854-5.011-2.781-9.211-2.781c-7.726,0-12.749,3.692-15.076,11.075L297.047,231.898z
			 M328.219,243.023c-5.722,0.199-11.15,0.762-16.289,1.689c-8.791,1.688-13.187,6.109-13.187,13.261
			c0,3.675,1.132,6.49,3.395,8.443c2.003,1.755,4.669,2.632,7.999,2.632c7.108,0,13.137-4.006,18.082-12.02V243.023z"/>
	</g>
	<g>
		<path fill="#EB6D8C" d="M225.313,308.878c6.734,0,12.098,2.881,16.089,8.642c3.541,5.121,5.312,11.718,5.312,19.791
			c0,9.282-2.291,16.59-6.873,21.925c-3.888,4.553-8.73,6.828-14.527,6.828c-6.804,0-12.184-2.898-16.141-8.695
			c-3.541-5.122-5.312-11.736-5.312-19.845c0-9.282,2.291-16.572,6.873-21.872C214.587,311.137,219.446,308.878,225.313,308.878z
			 M225.313,312.612c-5.554,0-9.876,2.454-12.965,7.362c-2.812,4.41-4.217,10.225-4.217,17.444c0,8.287,1.804,14.688,5.415,19.204
			c3.054,3.806,6.977,5.708,11.767,5.708c5.484,0,9.789-2.471,12.913-7.415c2.813-4.445,4.217-10.277,4.217-17.497
			c0-8.25-1.805-14.617-5.415-19.098C234.008,314.515,230.104,312.612,225.313,312.612z"/>
		<path fill="#EB6D8C" d="M266.863,283.006v81.832h-4.166v-81.832H266.863z"/>
		<path fill="#EB6D8C" d="M290.658,283.006v81.832h-4.166v-81.832H290.658z"/>
		<path fill="#EB6D8C" d="M349.547,336.991H310.86c0,8.642,1.995,15.256,5.987,19.844c3.192,3.664,7.168,5.495,11.924,5.495
			c4.547,0,8.157-1.12,10.83-3.361c2.326-1.956,4.184-4.908,5.572-8.855l3.957,1.974c-3.957,9.318-10.778,13.976-20.464,13.976
			c-6.872,0-12.357-2.898-16.452-8.695c-3.681-5.156-5.521-11.771-5.521-19.845c0-9.246,2.324-16.537,6.978-21.872
			c3.922-4.516,8.815-6.775,14.684-6.775c6.629,0,11.94,2.792,15.933,8.375c3.506,4.908,5.26,11.114,5.26,18.617V336.991
			L349.547,336.991z M345.277,333.257c-0.591-7.042-2.604-12.394-6.04-16.057c-2.915-3.058-6.544-4.587-10.882-4.587
			c-4.965,0-9.061,2.063-12.288,6.188c-2.882,3.699-4.548,8.518-4.999,14.457L345.277,333.257L345.277,333.257z"/>
		<path fill="#EB6D8C" d="M402.031,323.761l-3.957,1.654c-2.465-8.535-7.464-12.803-14.995-12.803
			c-5.555,0-9.876,2.454-12.965,7.362c-2.813,4.41-4.218,10.225-4.218,17.444c0,8.287,1.805,14.688,5.415,19.204
			c3.054,3.806,6.977,5.708,11.768,5.708c7.774,0,12.931-4.303,15.465-12.91l3.904,1.867c-3.646,9.852-10.102,14.776-19.369,14.776
			c-6.805,0-12.185-2.898-16.142-8.695c-3.54-5.122-5.311-11.736-5.311-19.845c0-9.282,2.291-16.572,6.872-21.872
			c3.854-4.516,8.713-6.775,14.579-6.775c4.615,0,8.607,1.387,11.977,4.161C398.213,315.635,400.537,319.209,402.031,323.761z"/>
		<path fill="#EB6D8C" d="M422.182,289.994v20.111h13.538v3.734h-13.538v38.568c0,6.757,2.812,10.136,8.436,10.136
			c2.43,0,4.737-0.249,6.926-0.747l-0.313,3.788c-2.257,0.463-4.461,0.693-6.612,0.693c-4.27,0-7.48-1.244-9.633-3.734
			c-1.979-2.275-2.968-5.441-2.968-9.496v-39.208h-9.27v-3.734h9.27v-19.098L422.182,289.994z"/>
		<path fill="#EB6D8C" d="M465.711,308.878c6.732,0,12.097,2.881,16.089,8.642c3.54,5.121,5.311,11.718,5.311,19.791
			c0,9.282-2.291,16.59-6.873,21.925c-3.888,4.553-8.729,6.828-14.525,6.828c-6.806,0-12.186-2.898-16.143-8.695
			c-3.54-5.122-5.311-11.736-5.311-19.845c0-9.282,2.291-16.572,6.873-21.872C454.984,311.137,459.844,308.878,465.711,308.878z
			 M465.711,312.612c-5.556,0-9.876,2.454-12.966,7.362c-2.813,4.41-4.218,10.225-4.218,17.444c0,8.287,1.805,14.688,5.415,19.204
			c3.054,3.806,6.978,5.708,11.769,5.708c5.482,0,9.787-2.471,12.911-7.415c2.813-4.445,4.219-10.277,4.219-17.497
			c0-8.25-1.807-14.617-5.415-19.098C474.406,314.515,470.501,312.612,465.711,312.612z"/>
		<path fill="#EB6D8C" d="M525.691,308.878l-0.312,4.268c-3.992,0-7.689,1.814-11.092,5.441c-3.158,3.379-5.502,7.807-7.028,13.283
			v32.967h-4.165v-54.732h4.061v14.723c2.083-5.441,4.999-9.583,8.748-12.429C518.991,310.052,522.255,308.878,525.691,308.878z"/>
	</g>
	<rect x="103.645" y="194.015" opacity="0.3" fill="#EB6D8C" enable-background="new    " width="79.058" height="175.27"/>
	<rect x="449.288" y="194.015" fill="#E62F76" width="77.219" height="79.205"/>
	<g>
		<line fill="none" x1="449.288" y1="194.015" x2="526.507" y2="273.22"/>
		<path fill="#FFFFFF" d="M449.468,193.841c0,0,5.04,4.742,12.523,11.929c1.874,1.793,3.904,3.736,6.053,5.792
			c2.135,2.067,4.386,4.248,6.715,6.503c4.649,4.518,9.609,9.337,14.57,14.157c2.495,2.395,4.99,4.791,7.446,7.148
			c2.476,2.339,4.886,4.667,7.163,6.972c2.258,2.324,4.414,4.598,6.39,6.821c0.993,1.106,1.959,2.182,2.895,3.222
			c0.916,1.059,1.802,2.082,2.65,3.064c1.7,1.963,3.213,3.808,4.555,5.442c1.331,1.644,2.479,3.09,3.402,4.3
			c1.857,2.413,2.854,3.855,2.854,3.855l-0.357,0.349c0,0-1.416-1.033-3.78-2.952c-1.188-0.956-2.604-2.139-4.213-3.512
			c-1.601-1.382-3.405-2.94-5.324-4.69c-0.961-0.875-1.961-1.785-2.996-2.728c-1.018-0.961-2.067-1.954-3.147-2.975
			c-2.172-2.031-4.391-4.244-6.655-6.561c-2.247-2.335-4.513-4.804-6.787-7.338c-2.295-2.515-4.626-5.07-6.957-7.625
			c-4.691-5.081-9.384-10.163-13.782-14.926c-2.195-2.385-4.318-4.691-6.33-6.878c-2-2.199-3.892-4.278-5.637-6.197
			c-6.994-7.664-11.606-12.823-11.606-12.823L449.468,193.841z"/>
	</g>
</g>
</svg>
